<svg xmlns="http://www.w3.org/2000/svg" width="256.05" height="256.908" viewBox="0 0 256.05 256.908"><defs><style>.a{fill:#ebebeb;}.b{fill:#e0e0e0;}.c{fill:#7e57c2;}.d{fill:#fff;opacity:0.5;}.e{fill:#263238;}.f{fill:#ffbe9d;}.g{fill:#455a64;}.h{fill:#eb996e;}.i{opacity:0.2;}.j{fill:#dcf04f;}.k{fill:#fafafa;}.l{opacity:0.3;}</style></defs><g transform="translate(-26.151 -27.78)"><g transform="translate(26.151 151.083)"><path class="a" d="M31.819,242.329s-7.6,1.767-1.727,18.221,10.284,24.8,10.284,24.8.927,3.764-2.158,3.925S28.631,287.513,26.806,291c-1.893,3.643.414,7.614,5.634,11.51s16.345,12.9,17.346,13.743,1.842,2.607-.247,3.056-17.214.052-16.972,7.246,16.575,15.671,18.342,16.632,2.106,1.807,1.824,2.809-5.364.391-9.669.455-9.294.9-8.805,5.036S43.8,365.362,68.145,371L79.6,372.878l7.522-8.9C102.083,343.959,102.7,330.67,100.4,327.2s-6.641-.892-9.968,1.842-6.814,6.446-7.677,5.864-1.151-1.45-.42-3.326,7.718-18.888,3.263-24.54-15.757,4.42-17.639,5.427-2.394-.932-2.158-2.175,2.941-15.3,4.408-21.651.668-10.871-3.131-12.431c-3.66-1.508-7.384,4.161-9.847,6.031s-4.178-1.606-4.178-1.606-1.991-9.271-8.143-25.593S31.67,242.381,31.67,242.381" transform="translate(-26.151 -242.03)"/><path class="b" d="M87.862,386.714c-4.472-12.022-12.086-33.518-18.67-51.946s-12.6-35.06-17.012-47.146c-2.21-6.008-4-10.871-5.237-14.255-.616-1.669-1.093-2.975-1.422-3.873l-.363-1.013c-.081-.23-.109-.351-.109-.351s.052.115.144.34.224.576.4,1c.34.9.84,2.193,1.479,3.856,1.289,3.349,3.114,8.207,5.346,14.215,4.472,12.022,10.509,28.678,17.116,47.094S83.69,374.565,88.1,386.6" transform="translate(-34.173 -253.109)"/><path class="b" d="M42.9,332.48a3.916,3.916,0,0,1,.771.328c.489.23,1.186.575,2.037,1.03,1.727.892,4.029,2.187,6.584,3.66l6.5,3.793,1.974,1.151a3.453,3.453,0,0,1,.714.449,3.585,3.585,0,0,1-.777-.322c-.489-.236-1.186-.575-2.037-1.042-1.727-.909-4.029-2.233-6.555-3.706l-6.521-3.747-1.98-1.151a3.666,3.666,0,0,1-.708-.443Z" transform="translate(-33.261 -280.425)"/><path class="b" d="M76.708,333.366c-.086-.046,2.365-4.967,5.485-10.986s5.715-10.866,5.8-10.82-2.365,4.967-5.485,10.986S76.795,333.412,76.708,333.366Z" transform="translate(-47.611 -271.545)"/><path class="b" d="M92.13,387.357a3.309,3.309,0,0,1,.576-.65l1.606-1.686c1.352-1.427,3.217-3.4,5.18-5.657s3.7-4.351,4.938-5.882l1.462-1.813a3.454,3.454,0,0,1,.576-.639,4.275,4.275,0,0,1-.46.725c-.311.449-.777,1.1-1.375,1.882-1.151,1.571-2.878,3.706-4.857,5.962s-3.879,4.219-5.277,5.6c-.708.685-1.283,1.237-1.692,1.606A3.994,3.994,0,0,1,92.13,387.357Z" transform="translate(-54.158 -296.789)"/><path class="b" d="M58.17,390.78a3.385,3.385,0,0,1,.783.115l2.106.449c1.773.391,4.218.955,6.906,1.606s5.134,1.255,6.906,1.727l2.083.576a3.238,3.238,0,0,1,.748.253,3.383,3.383,0,0,1-.783-.115l-2.112-.455c-1.773-.391-4.218-.961-6.906-1.606S62.768,392.075,61,391.6l-2.078-.576A3.626,3.626,0,0,1,58.17,390.78Z" transform="translate(-39.743 -305.173)"/><path class="b" d="M66.17,436.6a5.614,5.614,0,0,1,1,.161l2.7.576c2.3.495,5.416,1.2,8.88,1.991s6.6,1.531,8.857,2.106l2.676.673a5.656,5.656,0,0,1,.973.294,5.863,5.863,0,0,1-1-.155l-2.7-.576c-2.3-.489-5.416-1.191-8.88-1.991s-6.6-1.537-8.857-2.089l-2.676-.679A5.9,5.9,0,0,1,66.17,436.6Z" transform="translate(-43.139 -324.623)"/><path class="b" d="M108.79,430.458a6.419,6.419,0,0,1,.691-.84l1.957-2.21c1.652-1.87,3.925-4.46,6.331-7.39s4.564-5.634,6.089-7.6l1.813-2.331a6.082,6.082,0,0,1,.7-.835,6.43,6.43,0,0,1-.576.915c-.4.576-.984,1.4-1.727,2.406-1.479,2.009-3.585,4.748-6.02,7.677s-4.736,5.5-6.44,7.326c-.852.915-1.554,1.646-2.043,2.135a6.749,6.749,0,0,1-.777.748Z" transform="translate(-61.23 -313.013)"/><path class="a" d="M340.984,390.687c-15.665-9.312-20.465-28.384-21.15-45.793-.115-2.906-.662-5.939.535-8.587s4.282-4.6,6.964-3.585c2.227.858,3.349,3.292,4.708,5.272a17.006,17.006,0,0,0,7.274,6c1.916.823,4.247,1.237,5.991.1,2.4-1.56,2.44-5.036,2.21-7.919q-.639-8.057-1.283-16.114a26.959,26.959,0,0,1,.242-8.633c.7-2.809,2.492-5.49,5.18-6.463s6.2.363,6.981,3.142a26.355,26.355,0,0,1,.345,3.585,3.033,3.033,0,0,0,1.986,2.722c1.163.247,2.3-.645,3.073-1.554a32.522,32.522,0,0,0,6.118-10.894c1.45-4.207,2.878-8.443,5.628-11.2,2.964-2.947,6.02-6.164,10.129-6.7s8.7,1.686,10.043,5.663-.725,8.287-3.062,11.769a64.571,64.571,0,0,1-12.46,13.755,5.327,5.327,0,0,0-2.066,2.578c-.483,1.968,1.473,3.741,3.419,4.236,2.2.576,4.518.161,6.785.259s4.777.915,5.784,2.975c1.4,2.878-.84,6.129-3.119,8.333a55.25,55.25,0,0,1-15.619,10.618c-2.066.932-4.247,1.778-5.847,3.39s-2.446,4.288-1.26,6.239,3.879,2.411,6.072,1.836,4.092-1.928,6.152-2.878c3.85-1.79,8.99-1.893,11.775,1.347a9.124,9.124,0,0,1,1.565,7.994,21.225,21.225,0,0,1-3.844,7.447A55.637,55.637,0,0,1,367.786,388c-8.949,3.862-17.409,5.352-26.79,2.682" transform="translate(-150.721 -259.839)"/><path class="b" d="M363.15,381.018a258.961,258.961,0,0,1,8.213-28.568l2.532-7.378c.84-2.417,1.669-4.817,2.63-7.113a128.337,128.337,0,0,1,6.262-12.886c2.187-4,4.414-7.718,6.515-11.176s4.144-6.641,6.118-9.467a102.4,102.4,0,0,1,10.3-12.621c1.329-1.393,2.394-2.434,3.125-3.131l.84-.794a1.89,1.89,0,0,1,.3-.253,2.3,2.3,0,0,1-.265.294c-.2.207-.46.483-.8.829-.7.725-1.727,1.79-3.05,3.2a108.772,108.772,0,0,0-10.135,12.7c-1.951,2.832-3.96,6.02-6.049,9.484s-4.293,7.188-6.469,11.182A130.6,130.6,0,0,0,377,338.16c-.95,2.3-1.767,4.667-2.607,7.09s-1.675,4.886-2.532,7.378a257.474,257.474,0,0,0-8.236,28.5" transform="translate(-169.203 -261.387)"/><path class="b" d="M381.824,351.831a5.757,5.757,0,0,1-.374-1.209c-.207-.783-.472-1.928-.783-3.349-.616-2.843-1.341-6.8-2.118-11.153S377,327.827,376.339,325c-.328-1.416-.6-2.555-.806-3.338a5.9,5.9,0,0,1-.253-1.243,5.694,5.694,0,0,1,.455,1.186c.259.765.576,1.9.967,3.3.754,2.809,1.594,6.745,2.371,11.113s1.439,8.2,1.962,11.176c.247,1.341.455,2.475.616,3.378A6.026,6.026,0,0,1,381.824,351.831Z" transform="translate(-174.352 -275.306)"/><path class="b" d="M423.212,358.249a8.424,8.424,0,0,1-1.468.288c-.944.155-2.3.368-3.994.691-3.372.616-7.994,1.629-13.047,2.97s-9.565,2.768-12.805,3.89c-1.623.547-2.924,1.03-3.827,1.352a8,8,0,0,1-1.422.46,8.262,8.262,0,0,1,1.347-.656c.881-.386,2.164-.921,3.775-1.514a133.634,133.634,0,0,1,12.8-4.029,129.574,129.574,0,0,1,13.116-2.826c1.692-.276,3.073-.437,4.029-.524A8.321,8.321,0,0,1,423.212,358.249Z" transform="translate(-179.179 -291.363)"/><path class="b" d="M347.52,414.773a3.556,3.556,0,0,1-.288-.432l-.731-1.295c-.633-1.151-1.5-2.78-2.55-4.84-2.1-4.115-4.823-9.893-7.741-16.3s-5.588-12.212-7.6-16.362l-2.4-4.886-.645-1.341a1.634,1.634,0,0,1-.19-.483,2.145,2.145,0,0,1,.288.432l.731,1.295c.627,1.151,1.5,2.78,2.55,4.84,2.1,4.115,4.823,9.893,7.741,16.31s5.588,12.207,7.6,16.362l2.4,4.909.645,1.341A2.071,2.071,0,0,1,347.52,414.773Z" transform="translate(-153.17 -295.855)"/><path class="b" d="M411.945,414.78a1.962,1.962,0,0,1-.478.242l-1.393.576-5.151,2.1c-4.345,1.773-10.325,4.288-16.926,7.073s-12.6,5.254-16.989,6.941c-2.193.84-3.977,1.5-5.214,1.934l-1.433.495a1.976,1.976,0,0,1-.512.132,2.124,2.124,0,0,1,.478-.236l1.393-.576,5.151-2.095c4.345-1.773,10.325-4.288,16.926-7.079s12.6-5.254,16.989-6.935c2.193-.84,3.977-1.5,5.214-1.939l1.433-.489A2.2,2.2,0,0,1,411.945,414.78Z" transform="translate(-169.501 -315.361)"/></g><g transform="translate(145.227 27.78)"><path class="c" d="M291.623,35.342a7.752,7.752,0,0,0-1.727-4.334,7.482,7.482,0,0,0-3.752-2.624,6.031,6.031,0,0,0-6.814,2.716A6.026,6.026,0,0,0,273,27.855a7.482,7.482,0,0,0-4.029,2.17,7.815,7.815,0,0,0-2.244,4.1,9.479,9.479,0,0,0,.811,5.864,13.444,13.444,0,0,0,4.357,4.6c2.906,1.986,6.739,4.489,6.739,4.489s3.5-2.3,6.613-3.948a13.455,13.455,0,0,0,4.863-4.029,9.49,9.49,0,0,0,1.514-5.767Z" transform="translate(-247.284 -27.78)"/><path class="c" d="M249.713,62.469a5.214,5.214,0,0,0-1.6-2.7,5,5,0,0,0-2.751-1.358,4.029,4.029,0,0,0-4.247,2.486A4.08,4.08,0,0,0,239.8,59.7a4.138,4.138,0,0,0-3.211-.322,5.03,5.03,0,0,0-2.457,1.842,5.249,5.249,0,0,0-1.07,2.947,6.331,6.331,0,0,0,1.151,3.821,8.984,8.984,0,0,0,3.355,2.6c2.124,1.03,4.921,2.3,4.921,2.3s2.089-1.882,3.988-3.286a8.932,8.932,0,0,0,2.82-3.171,6.382,6.382,0,0,0,.42-3.965Z" transform="translate(-233.056 -40.766)"/><path class="d" d="M291.623,35.342a7.752,7.752,0,0,0-1.727-4.334,7.482,7.482,0,0,0-3.752-2.624,6.031,6.031,0,0,0-6.814,2.716A6.026,6.026,0,0,0,273,27.855a7.482,7.482,0,0,0-4.029,2.17,7.815,7.815,0,0,0-2.244,4.1,9.479,9.479,0,0,0,.811,5.864,13.444,13.444,0,0,0,4.357,4.6c2.906,1.986,6.739,4.489,6.739,4.489s3.5-2.3,6.613-3.948a13.455,13.455,0,0,0,4.863-4.029,9.49,9.49,0,0,0,1.514-5.767Z" transform="translate(-247.284 -27.78)"/><path class="d" d="M249.713,62.469a5.214,5.214,0,0,0-1.6-2.7,5,5,0,0,0-2.751-1.358,4.029,4.029,0,0,0-4.247,2.486A4.08,4.08,0,0,0,239.8,59.7a4.138,4.138,0,0,0-3.211-.322,5.03,5.03,0,0,0-2.457,1.842,5.249,5.249,0,0,0-1.07,2.947,6.331,6.331,0,0,0,1.151,3.821,8.984,8.984,0,0,0,3.355,2.6c2.124,1.03,4.921,2.3,4.921,2.3s2.089-1.882,3.988-3.286a8.932,8.932,0,0,0,2.82-3.171,6.382,6.382,0,0,0,.42-3.965Z" transform="translate(-233.056 -40.766)"/></g><g transform="translate(212.353 43.086)"><path class="e" d="M378.329,54.384a3.884,3.884,0,0,1,.489,0l1.445.035c.317,0,.673,0,1.065.035l1.272.144,1.485.173,1.663.334a30.5,30.5,0,0,1,8.057,2.814,27.152,27.152,0,0,1,8.322,6.509,20.661,20.661,0,0,1,4.719,10.624,19.453,19.453,0,0,1,.081,3.125c-.046.529-.035,1.065-.132,1.6s-.2,1.07-.3,1.611a20.143,20.143,0,0,1-2.7,6.331,25.629,25.629,0,0,1-5.18,5.709,30.5,30.5,0,0,1-7.453,4.3,32.027,32.027,0,0,1-9.059,2.268,22.64,22.64,0,0,1-2.423.167c-.817.046-1.634.069-2.452.035a36.2,36.2,0,0,1-4.909-.495,32.867,32.867,0,0,1-9.784-3.3h.293l-9.956,3.223-.576.19.167-.495q1.514-4.391,2.929-8.535l.046.207a20.919,20.919,0,0,1-5.306-9.784,16.688,16.688,0,0,1-.391-5,13.273,13.273,0,0,1,.282-2.4c.081-.391.155-.783.23-1.151s.23-.754.345-1.151a23.615,23.615,0,0,1,11.1-12.989,30.151,30.151,0,0,1,6.59-2.762l1.5-.443,1.41-.288,1.295-.259c.414-.063.811-.1,1.191-.144.748-.075,1.41-.184,1.991-.207l1.462-.035h1.2a1.416,1.416,0,0,1-.3.035l-.886.058-1.456.081c-.576.035-1.226.15-1.974.236a32.361,32.361,0,0,0-11.8,4.029,23.126,23.126,0,0,0-10.82,12.845c-.109.368-.253.731-.334,1.111s-.144.765-.219,1.151a12.773,12.773,0,0,0-.265,2.354,16.4,16.4,0,0,0,.409,4.9,20.592,20.592,0,0,0,5.237,9.542l.086.1-.04.115q-1.4,4.132-2.878,8.546l-.42-.305,9.945-3.211.155-.052.138.075a32.257,32.257,0,0,0,9.553,3.223,35.418,35.418,0,0,0,4.794.483,23.822,23.822,0,0,0,2.4-.035,21.478,21.478,0,0,0,2.365-.155,31.573,31.573,0,0,0,8.863-2.181,30.192,30.192,0,0,0,7.3-4.2,25.19,25.19,0,0,0,5.082-5.588,19.764,19.764,0,0,0,2.676-6.221c.1-.529.2-1.053.3-1.577a14.492,14.492,0,0,0,.132-1.565,18.776,18.776,0,0,0-.063-3.067,20.31,20.31,0,0,0-4.57-10.463,26.841,26.841,0,0,0-8.132-6.492,30.841,30.841,0,0,0-7.919-2.878l-1.64-.351-1.479-.19-1.26-.167c-.386-.035-.742-.04-1.059-.063l-1.433-.086A2.423,2.423,0,0,1,378.329,54.384Z" transform="translate(-349.693 -54.377)"/><path class="e" d="M369.384,89.537v1.151h-2.078v5.536h-1.289V90.671H363.94V89.52Z" transform="translate(-355.741 -69.295)"/><path class="e" d="M376.266,89.55v2.878H379.6V89.55h1.278v6.67H379.6v-2.7h-3.338v2.7H375V89.55Z" transform="translate(-360.436 -69.307)"/><path class="e" d="M391.834,94.81H388.6l-.576,1.41H386.7l2.924-6.67H390.9l2.878,6.67H392.4Zm-.46-1.093-1.151-2.8-1.18,2.8Z" transform="translate(-365.402 -69.307)"/><path class="e" d="M401.65,89.55l3.453,4.564V89.55h1.243v6.67h-1.214l-3.453-4.552V96.22H400.43V89.55Z" transform="translate(-371.23 -69.307)"/><path class="e" d="M417.956,96.22l-2.078-2.878-1.07,1.151v1.675H413.53V89.55h1.278v3.263l3.021-3.263h1.485l-2.544,2.82,2.728,3.85Z" transform="translate(-376.791 -69.307)"/><path class="e" d="M427.311,90.613c-.576,0-.99.219-.99.633,0,1.352,3.58.616,3.574,3.01,0,1.249-1.088,1.974-2.555,1.974a4.322,4.322,0,0,1-2.82-1.07l.529-1.076a3.77,3.77,0,0,0,2.3.984c.714,0,1.151-.27,1.151-.737,0-1.393-3.585-.576-3.585-2.975,0-1.151,1-1.9,2.5-1.9a4.535,4.535,0,0,1,2.411.708l-.512,1.1A4.253,4.253,0,0,0,427.311,90.613Z" transform="translate(-381.456 -69.265)"/><path class="e" d="M436.754,95.661a.656.656,0,1,1-.308-.619.656.656,0,0,1,.308.619ZM436.7,89.67v1.657L436.49,94.1h-.771l-.213-2.774V89.67Z" transform="translate(-386.094 -69.358)"/></g><g transform="translate(62.963 68.408)"><path class="f" d="M129.89,189.113s-17.743-2.987-21.714,7.579c-3.355,8.932,10.612,24.908,10.612,24.908l11.706-11.194Z" transform="translate(-97.561 -136.727)"/><path class="e" d="M105.84,251.739s.472,20.937,6.808,40.4c2.083,6.417,9.208,40.05,9.208,40.05-7.033,13.7-12.143,21.708-14.267,33.909h89.118l-6.751-40.867s2.734-32.913,2.757-33.242c1.962-25.639,3.5-53.672,2.106-54.633-9.1-6.239-27.314-14.629-39.135-15.861S109.161,233.26,105.84,251.739Z" transform="translate(-96.79 -150.602)"/><path class="g" d="M178.03,364.43a2.526,2.526,0,0,1-.15.472c-.121.334-.282.777-.489,1.335l-.363.961c-.144.345-.328.708-.512,1.105a28.147,28.147,0,0,1-1.341,2.659c-.276.478-.576.984-.858,1.5s-.679,1.03-1.03,1.571a41.175,41.175,0,0,1-2.469,3.326,43.895,43.895,0,0,1-14.848,11.625c-1.335.576-2.59,1.2-3.821,1.606-.616.213-1.191.455-1.773.622l-1.669.472a28.905,28.905,0,0,1-2.878.668c-.426.081-.823.173-1.2.23l-1.019.121-1.41.155a2.659,2.659,0,0,1-.495.035,3.149,3.149,0,0,1,.489-.092l1.4-.213,1.013-.15c.368-.063.765-.161,1.191-.253.846-.2,1.83-.363,2.878-.708l1.652-.483c.576-.173,1.151-.42,1.727-.639,1.226-.414,2.463-1.019,3.787-1.617A44.591,44.591,0,0,0,170.6,377.183c.9-1.151,1.778-2.2,2.475-3.286.357-.541.731-1.036,1.042-1.554s.576-1.013.869-1.485c.576-.932.978-1.847,1.375-2.624.19-.391.38-.754.529-1.093l.386-.95c.23-.547.409-.984.541-1.306A4.516,4.516,0,0,1,178.03,364.43Z" transform="translate(-112.017 -211.313)"/><path class="g" d="M196.7,387.58a.743.743,0,0,1-.092.115c-.081.092-.184.2-.311.328-.288.305-.691.719-1.2,1.243l-.875.9c-.328.317-.708.639-1.1,1-.806.7-1.68,1.548-2.762,2.342l-1.663,1.295c-.576.443-1.226.852-1.876,1.3-1.283.927-2.751,1.755-4.282,2.659a65.352,65.352,0,0,1-10.555,4.662,66.183,66.183,0,0,1-11.251,2.573c-1.767.184-3.453.4-5.018.42-.788.029-1.554.086-2.3.081l-2.106-.046c-1.347,0-2.549-.15-3.614-.23-.529-.052-1.024-.086-1.479-.144l-1.232-.2-1.727-.276-.443-.081-.15-.04h.155l.443.046,1.727.224,1.232.173c.455.046.95.069,1.479.115,1.059.063,2.262.207,3.6.184h2.1c.725,0,1.485-.063,2.3-.092,1.571-.035,3.24-.259,5-.449a61.58,61.58,0,0,0,21.708-7.2c1.525-.892,2.993-1.727,4.276-2.624.65-.443,1.295-.84,1.882-1.278l1.669-1.278c1.082-.783,1.962-1.617,2.774-2.3.4-.351.783-.668,1.116-.973s.622-.61.892-.875l1.237-1.2.328-.305Z" transform="translate(-112.424 -221.14)"/><path class="g" d="M197.023,242.81c0,.029-.351.2-.961.576a10.428,10.428,0,0,0-2.3,1.951,12.978,12.978,0,0,0-2.342,3.8,16.178,16.178,0,0,0-1.151,5.352,31.283,31.283,0,0,0,1.508,9.887c.357,1.237.673,2.233.881,2.924.1.317.173.576.236.8a.909.909,0,0,1,.063.282,1.542,1.542,0,0,1-.121-.265c-.075-.213-.173-.466-.288-.783-.247-.679-.576-1.663-.978-2.878a40.568,40.568,0,0,1-1.151-4.4,23.664,23.664,0,0,1-.466-5.554,16.35,16.35,0,0,1,1.209-5.444,12.961,12.961,0,0,1,2.44-3.844A9.939,9.939,0,0,1,196,243.3a7.075,7.075,0,0,1,.754-.368A1.393,1.393,0,0,1,197.023,242.81Z" transform="translate(-132.488 -159.686)"/><path class="f" d="M196.2,173.131c2.757.99,5.98,1.934,8.5.282,1.727-1.151,2.647-3.223,3.419-5.18a144.749,144.749,0,0,0,4.662-14.037s6.906-15.976,6.613-25.04,1.042-13.047-10.854-16.258-42.432,50.645-42.432,50.645Z" transform="translate(-122.374 -104.482)"/><path class="c" d="M215.077,116.731s6.906-12.868-2.181-16.8-17.691.823-17.691.823-25.156-4.063-29.881,5.876-10.607,18.157-9.3,27.5,6.584,20.425,6.584,20.425a19.7,19.7,0,0,0,22.957-5.1,48.51,48.51,0,0,0,6.682-10.463c1.962-4.029,6.774-7.608,9.87-3.326.489.673,2.728.426,3.188-1.093.858-2.814.645-8.23,2.147-8.541a12.511,12.511,0,0,0,6.365-2.878c1.692-1.663,2.492-4.414,1.26-6.428" transform="translate(-118.014 -98.375)"/><path class="h" d="M229.537,170.942a1.5,1.5,0,0,1-1.036-.351,2.469,2.469,0,0,1,.576-4.4,1.5,1.5,0,0,1,1.093-.086,4.938,4.938,0,0,0-1.007.282,2.331,2.331,0,0,0-.506,4.029,5.8,5.8,0,0,0,.881.529Z" transform="translate(-148.387 -127.097)"/><path class="h" d="M221.514,164.348a9.858,9.858,0,0,0-2.4,6.843,4.886,4.886,0,0,0,1.151,3.188,2.5,2.5,0,0,0,3.131.483.84.84,0,0,0,.391-.973,1.07,1.07,0,0,0-.409-.391,6.48,6.48,0,0,1-1.427-9.208" transform="translate(-144.871 -126.355)"/><path class="e" d="M229.175,161.131a2.815,2.815,0,0,0-.576-.576,2.6,2.6,0,0,0-2.078-.472h0a5.11,5.11,0,0,0-2.878,1.433,6.4,6.4,0,0,0-1.778,3.528,7.666,7.666,0,0,0,.311,3.977,3.977,3.977,0,0,0,2.129,2.354,3.321,3.321,0,0,0,2.158.178,7.655,7.655,0,0,0,.754-.317,2.025,2.025,0,0,1-.161.138,2.562,2.562,0,0,1-.576.288,3.292,3.292,0,0,1-2.3-.092,4.155,4.155,0,0,1-2.3-2.446,7.833,7.833,0,0,1-.345-4.132,6.573,6.573,0,0,1,1.882-3.678,5.18,5.18,0,0,1,3.056-1.439h0a2.647,2.647,0,0,1,2.193.576,2.06,2.06,0,0,1,.4.483C229.152,161.079,229.186,161.125,229.175,161.131Z" transform="translate(-145.844 -124.463)"/><g class="i" transform="translate(37.848 23.984)"><path d="M157.675,144.625c1.611,2.216,3.678,4.207,5,6.607a25.567,25.567,0,0,1,2.659,9.041,22.564,22.564,0,0,1-1.468,12.581c3.021-.932,4.6-3.044,5.128-6.158a23.1,23.1,0,0,0-.771-10.043,20.534,20.534,0,0,0-6.192-9.571c-2.06-1.824-5.536-4.351-6.152-7.033A14.669,14.669,0,0,0,157.675,144.625Z" transform="translate(-155.879 -140.05)"/></g><g class="i" transform="translate(40.479 12.174)"><path d="M160.45,129.094a9.243,9.243,0,0,0,16.114-8.581,1.479,1.479,0,0,0-.7-.95,1.111,1.111,0,0,0-1.295.627,4.345,4.345,0,0,0-.294,1.542,8.679,8.679,0,0,1-12.84,6.757" transform="translate(-160.45 -119.528)"/></g><path class="e" d="M170.985,110.4a5.928,5.928,0,0,0-5.272-1.272,11.326,11.326,0,0,0-4.644,2.434,14.025,14.025,0,0,0-4.121,4.736,6.878,6.878,0,0,0-.161,6.1c1.243,2.4,4.161,3.557,6.86,3.453a10.457,10.457,0,0,0,8.794-5.934c1.565-3.372,2.043-7.159-1.456-9.513" transform="translate(-118.144 -102.868)"/><path class="c" d="M137.7,154.214l13.812,3.9s1.83-1.053,1.364-9.352c-.219-3.919-3.3-7.482-4.6-11.182-1.065-3.062-2.774-5.864-3.9-8.9s-1.9-5.876-.495-8.794,4.4-2.993,7.223-1.4a7.315,7.315,0,0,0,3.453-4.167,11.968,11.968,0,0,0-7.482-7.579,13.674,13.674,0,0,0-12.12,1.076c-4.351,2.785-6.866,7.556-7.936,12.506l-.035.138a24.885,24.885,0,0,0,2.521,17.041c2.158,3.925,4.092,10.837.368,16.114l5.473.242a11.1,11.1,0,0,1,2.36.368Z" transform="translate(-105.539 -101.523)"/><path class="g" d="M171.048,116.06a5.467,5.467,0,0,1-.058,1.577,7.626,7.626,0,0,1-1.358,3.568,5,5,0,0,1-1.611,1.4,4.121,4.121,0,0,1-1.675.472,3.234,3.234,0,0,1-1.151-.132c-.259-.086-.391-.167-.386-.184a5.91,5.91,0,0,0,1.537.109,4.357,4.357,0,0,0,1.56-.506,4.9,4.9,0,0,0,1.5-1.341,8.057,8.057,0,0,0,1.387-3.453A13.828,13.828,0,0,1,171.048,116.06Z" transform="translate(-121.822 -105.882)"/><path class="e" d="M141.65,156.878a14.76,14.76,0,0,0,1.381-2.02,8.633,8.633,0,0,0,.869-2.7,13.479,13.479,0,0,0-.035-3.781,57.24,57.24,0,0,0-2.348-9.617c-.576-1.773-1.232-3.626-1.8-5.588a30.144,30.144,0,0,1-1.209-6.2,18.221,18.221,0,0,1,.633-6.285,12.616,12.616,0,0,1,1.151-2.785,10.164,10.164,0,0,1,1.761-2.3,9.611,9.611,0,0,1,4.656-2.555,9.9,9.9,0,0,1,4.639.052,9.473,9.473,0,0,1,3.453,1.692,9.57,9.57,0,0,1,2.009,2.083,8.863,8.863,0,0,1,.909,1.583c.086.19.138.34.178.443a.627.627,0,0,1,.046.15.99.99,0,0,1-.075-.138c-.046-.1-.109-.247-.2-.432a9.784,9.784,0,0,0-.95-1.537,9.916,9.916,0,0,0-2.014-2.02,9.358,9.358,0,0,0-3.384-1.617,9.692,9.692,0,0,0-4.529,0,9.289,9.289,0,0,0-4.518,2.515,9.582,9.582,0,0,0-1.727,2.244,12.2,12.2,0,0,0-1.151,2.728,18.06,18.06,0,0,0-.616,6.187,30.369,30.369,0,0,0,1.191,6.141c.576,1.951,1.2,3.8,1.778,5.582a56,56,0,0,1,2.3,9.68,13.456,13.456,0,0,1,0,3.827,8.7,8.7,0,0,1-.932,2.739,6.8,6.8,0,0,1-.576.886,4.819,4.819,0,0,1-.478.61l-.317.351a.673.673,0,0,1-.1.092Z" transform="translate(-110.639 -104.492)"/><path class="e" d="M163.358,127.627a4.057,4.057,0,0,0-1.583-1.093,4.7,4.7,0,0,0-4.857,1.116c-1.583,1.583-2.164,4.564-1.151,7.338A15.994,15.994,0,0,0,158,139.051c.961,1.3,2.037,2.607,3.01,4.029a24.034,24.034,0,0,1,2.469,4.42,22.835,22.835,0,0,1,1.22,4.558c.242,1.473.478,2.878.576,4.218a33.686,33.686,0,0,1,.035,3.712c-.058,1.151-.184,2.152-.276,3.044a8.4,8.4,0,0,1-.506,2.262,5.18,5.18,0,0,1-.719,1.272c-.1.138-.19.23-.242.294l-.092.092a4.363,4.363,0,0,1,.282-.42,5.411,5.411,0,0,0,.662-1.278,21.243,21.243,0,0,0,.679-5.277,32.341,32.341,0,0,0-.075-3.683,41.508,41.508,0,0,0-.576-4.19,22.715,22.715,0,0,0-1.214-4.495,23.648,23.648,0,0,0-2.48-4.345c-.967-1.427-2.032-2.722-3-4.029A15.855,15.855,0,0,1,155.5,135.1c-1.036-2.878-.414-5.945,1.255-7.574a4.719,4.719,0,0,1,2.751-1.347,4.6,4.6,0,0,1,2.3.265,3.5,3.5,0,0,1,1.249.765,3.293,3.293,0,0,1,.247.288A.907.907,0,0,1,163.358,127.627Z" transform="translate(-117.654 -110.158)"/><path class="e" d="M182.78,120.49a1.785,1.785,0,0,1,.23-.294c.161-.184.38-.466.7-.794a23.5,23.5,0,0,1,2.878-2.6,25.006,25.006,0,0,1,24.448-3.367,23.336,23.336,0,0,1,3.5,1.727c.4.23.691.443.892.576a1.433,1.433,0,0,1,.3.219,1.939,1.939,0,0,1-.328-.173c-.213-.109-.512-.305-.921-.518A25.53,25.53,0,0,0,186.716,117a26.236,26.236,0,0,0-2.947,2.509c-.34.317-.576.576-.742.754A1.6,1.6,0,0,1,182.78,120.49Z" transform="translate(-129.45 -104.016)"/><path class="e" d="M176.31,133.84a1.4,1.4,0,0,1,.259.236l.7.714c.627.576,1.519,1.485,2.734,2.457a30.929,30.929,0,0,0,4.483,3.062,24.506,24.506,0,0,0,6.152,2.469,22.443,22.443,0,0,0,3.39.576,23.873,23.873,0,0,0,3.2.029c2.043-.121,3.879-.391,5.427-.576a31.559,31.559,0,0,1,3.683-.2,9.854,9.854,0,0,1,1.007.052,1.727,1.727,0,0,1,.345.046H206.34a35.678,35.678,0,0,0-3.66.294c-1.542.178-3.372.472-5.433.61a23.537,23.537,0,0,1-3.246,0,22.445,22.445,0,0,1-3.453-.576,24.218,24.218,0,0,1-6.21-2.521,29.351,29.351,0,0,1-4.489-3.142,31.652,31.652,0,0,1-2.676-2.538l-.662-.754A1.479,1.479,0,0,1,176.31,133.84Z" transform="translate(-126.704 -113.43)"/><path class="e" d="M176.179,138a2.042,2.042,0,0,1,.23.213l.61.65.437.478c.167.173.357.34.576.535.4.374.835.829,1.381,1.26l.84.7c.288.236.622.455.944.7.65.495,1.4.944,2.17,1.433a29.414,29.414,0,0,0,11.188,3.89c.915.1,1.778.213,2.6.219.409,0,.8.046,1.151.04l1.088-.029c.7,0,1.318-.086,1.865-.127.276-.029.535-.046.765-.075l.639-.1.886-.132a1.313,1.313,0,0,1,.317,0,2.025,2.025,0,0,1-.305.081l-.875.19-.639.127c-.236.04-.489.063-.765.1a18.127,18.127,0,0,1-1.876.178l-1.1.046H197.11a25.455,25.455,0,0,1-2.619-.2A28.523,28.523,0,0,1,183.2,144.25a25.989,25.989,0,0,1-2.175-1.473c-.328-.247-.656-.472-.95-.719l-.829-.719a17.909,17.909,0,0,1-1.364-1.3,7.155,7.155,0,0,1-.541-.576c-.161-.2-.288-.345-.42-.495l-.576-.691A1.937,1.937,0,0,1,176.179,138Z" transform="translate(-126.648 -115.196)"/><path class="e" d="M154.357,162.891s.058-.178.178-.512c.058-.173.132-.38.213-.622s.155-.541.242-.858a19.158,19.158,0,0,0,.449-2.417,21.454,21.454,0,0,0,.1-3.24,27.176,27.176,0,0,0-1.8-8.236c-1.088-3-2.941-6.008-4.437-9.375a22.352,22.352,0,0,1-1.623-5.128,12.541,12.541,0,0,1,.075-5,9.588,9.588,0,0,1,2.037-4.029,6.906,6.906,0,0,1,3.275-2.158,6.48,6.48,0,0,1,3.24-.069,5.755,5.755,0,0,1,2.227,1.024,5.18,5.18,0,0,1,1.076,1.151l.27.466-.294-.455a5.226,5.226,0,0,0-1.082-1.1,5.784,5.784,0,0,0-2.216-1,6.331,6.331,0,0,0-3.2.092,6.831,6.831,0,0,0-3.223,2.135,9.5,9.5,0,0,0-2,3.988,12.523,12.523,0,0,0-.069,4.949,22.288,22.288,0,0,0,1.617,5.1c1.5,3.355,3.344,6.365,4.431,9.381a27.1,27.1,0,0,1,1.773,8.27,20.851,20.851,0,0,1-.109,3.257,19.806,19.806,0,0,1-.472,2.417l-.253.858-.224.622C154.432,162.718,154.357,162.891,154.357,162.891Z" transform="translate(-114.46 -108.013)"/><path class="e" d="M213.925,133.756l-.317.075-.915.178c-.4.086-.886.178-1.462.253s-1.22.2-1.939.259-1.514.167-2.371.207-1.761.075-2.722.1a52.474,52.474,0,0,1-6.238-.363,53.312,53.312,0,0,1-6.141-1.151c-.927-.253-1.813-.478-2.624-.754s-1.565-.518-2.244-.771-1.289-.506-1.824-.725-.984-.42-1.352-.576l-.846-.4c-.19-.092-.288-.15-.288-.15l.3.127.858.38c.368.167.817.368,1.358.576s1.151.478,1.824.708,1.427.518,2.25.76,1.692.489,2.619.742a54.616,54.616,0,0,0,6.123,1.151,53.669,53.669,0,0,0,6.227.374c.955,0,1.865,0,2.716-.086s1.646-.115,2.365-.19,1.37-.167,1.945-.242,1.059-.155,1.456-.236l.921-.161Z" transform="translate(-129.391 -111.774)"/><path class="c" d="M142.046,333.163a5.278,5.278,0,0,1-2.486,3.165,15.176,15.176,0,0,1-8.6,3.039,1.8,1.8,0,0,1-1.088-.2c-.668-.449-.524-1.468-.219-2.216s.7-1.606.288-2.3a6.843,6.843,0,0,1-7.108.863.875.875,0,0,1-.115-1.508c3.234-2.3,5.433-6.653,6-10.584Z" transform="translate(-103.795 -193.904)"/><g class="i" transform="translate(24.799 129.538)"><path d="M146,332.4a83.593,83.593,0,0,0-12.661-8.943c-.178,1.727-.317,3.735.518,5.266a7.888,7.888,0,0,0,3.816,3.073c2.486,1.243,5.3,2.354,7.982,1.617.322-.086.7-.305.639-.633a.714.714,0,0,0-.294-.38Z" transform="translate(-133.205 -323.46)"/></g><path class="c" d="M124.636,227.522c7.574-2.722,10.762-3.079,18.111-4.7a38.051,38.051,0,0,1,5.462-.817c1.416.322,2.3,3.493,2.129,4.932a11.69,11.69,0,0,1-1.727,3.971,22.589,22.589,0,0,0-1.387,18.3c.881,2.429,2.181,4.69,2.941,7.159s1.986,4.564.27,6.618c-6.664-2.193-14.911-5.479-21.576-7.666.639-2.36.069-2.826-1.773-4.426s-4.092-2.693-5.853-4.385a11.579,11.579,0,0,1,3.407-18.992" transform="translate(-101.808 -150.85)"/><g class="i" transform="translate(24.335 73.835)"><path d="M132.4,228.978c2.619,3.211,7.574,5.5,11.712,5.79a16.724,16.724,0,0,0,11.93-4.029,3.585,3.585,0,0,0,.478-1.226c-.092-.294-.99-.075-1.278-.167a60.663,60.663,0,0,0-12.276-2.653c-3.66-.3-10.566,2.452-10.566,2.3" transform="translate(-132.4 -226.67)"/></g><path class="e" d="M147.927,261.587a11.967,11.967,0,0,0,.1-1.422,8.374,8.374,0,0,0-1.053-3.689,13.574,13.574,0,0,0-1.485-2.221c-.6-.748-1.312-1.5-2.066-2.3s-1.542-1.623-2.3-2.561a13.467,13.467,0,0,1-2.895-10.192,13.271,13.271,0,0,1,4.6-8.385,8.441,8.441,0,0,1,.852-.639,1.439,1.439,0,0,1,.317-.2s-.4.311-1.093.921a13.956,13.956,0,0,0-2.486,2.97,13.145,13.145,0,0,0-1.911,5.364,13.375,13.375,0,0,0,.984,6.872,19.453,19.453,0,0,0,4.132,5.657c.748.794,1.456,1.56,2.06,2.3a13.874,13.874,0,0,1,1.479,2.3,8.149,8.149,0,0,1,.978,3.787,5.755,5.755,0,0,1-.115,1.065A1.507,1.507,0,0,1,147.927,261.587Z" transform="translate(-110.492 -154.24)"/><path class="e" d="M157.792,264.138a1.238,1.238,0,0,1,.086-.368,2.976,2.976,0,0,0,.1-.449,5.294,5.294,0,0,0,.086-.616,8.88,8.88,0,0,0-.576-3.908,15.247,15.247,0,0,0-1.186-2.475,26.706,26.706,0,0,0-1.819-2.584,38.442,38.442,0,0,1-4.19-5.922,14.244,14.244,0,0,1-1.2-3.568,15.17,15.17,0,0,1-.213-3.5,15.464,15.464,0,0,1,1.462-5.726,14.319,14.319,0,0,1,2.17-3.349c.294-.368.576-.576.742-.788a.937.937,0,0,1,.276-.265l-.259.282c-.161.184-.437.426-.725.8a15.06,15.06,0,0,0-2.129,3.355,15.608,15.608,0,0,0-1.427,5.7,15.24,15.24,0,0,0,.219,3.453,14.319,14.319,0,0,0,1.186,3.539,37.137,37.137,0,0,0,4.178,5.9,26,26,0,0,1,1.807,2.6,14.514,14.514,0,0,1,1.186,2.5,8.909,8.909,0,0,1,.576,3.936,4.028,4.028,0,0,1-.1.622,2.562,2.562,0,0,1-.109.449C157.832,264.017,157.792,264.138,157.792,264.138Z" transform="translate(-115.052 -154.512)"/><path class="e" d="M238.633,193.73c3.1,3.292,2.584,7.821,1.024,11.01-2.36,4.811-1.669,6.29-3.16,8.782-1.422,2.383-.322,2.2.633,4.811a21.168,21.168,0,0,0,4.6,6.86,55.25,55.25,0,0,0,7.522,6.722c1.485,1.093,3.269,2.17,5.059,1.727a4.558,4.558,0,0,0,3-3.16,13.4,13.4,0,0,0,.357-4.523l-.829-24.016" transform="translate(-151.964 -138.852)"/><path class="j" d="M258.751,424.711h67.807c-.754-2.066-3.4-31.411-19.671-40.821,0,0-5.951,2.141-19.1-4.362-15.28-7.551-33.742-20.028-33.742-20.028L252,383.844Z" transform="translate(-158.833 -209.22)"/><g class="i" transform="translate(95.064 149.487)"><path d="M304.045,382.914a14.388,14.388,0,0,0-3.056-2.665c-6.762-4.794-14.111-8.7-21.438-12.575-6.757-3.585-13.571-7.188-20.92-9.289a4.029,4.029,0,0,0-2.2-.19,1.468,1.468,0,0,0-1.116,1.663c5.45,5.26,11.044,10.359,17.542,14.255a50.839,50.839,0,0,0,21.294,7.378c1.283.115,2.843.357,3.309,1.554a6.7,6.7,0,0,1,.1,2.124c.029.714.483,1.542,1.2,1.5.829-.052,1.082-1.151,1.093-1.974s.224-1.922,1.053-2.02a1.778,1.778,0,0,1,1.335.737c1.036,1.088,4.754,6.141,5.79,7.223C308.125,389.291,304.873,383.979,304.045,382.914Z" transform="translate(-255.297 -358.122)"/></g><path class="e" d="M343.528,416.251c-.058,0,.236-.823.426-2.17a13.685,13.685,0,0,0-1.329-7.988,13.442,13.442,0,0,0-1.255-2.032c-.817-1.088-1.462-1.646-1.422-1.692a2.4,2.4,0,0,1,.472.374,4.832,4.832,0,0,1,.506.489,8.086,8.086,0,0,1,.616.7,12.557,12.557,0,0,1,1.329,2.032,14.187,14.187,0,0,1,1.065,2.78,14.655,14.655,0,0,1,.409,2.947,12.173,12.173,0,0,1-.184,2.423,7.228,7.228,0,0,1-.2.909,4.373,4.373,0,0,1-.2.673,2.6,2.6,0,0,1-.23.553Z" transform="translate(-196.166 -227.418)"/><path class="e" d="M332.266,407.371c-.046,0,.236-.455.541-1.209a9.1,9.1,0,0,0,.673-3.079,9.3,9.3,0,0,0-.437-3.125c-.253-.771-.495-1.226-.449-1.249a3.791,3.791,0,0,1,.65,1.151,8.114,8.114,0,0,1,.535,3.211,8.006,8.006,0,0,1-.777,3.154,3.533,3.533,0,0,1-.737,1.145Z" transform="translate(-192.904 -225.864)"/><path class="k" d="M281.725,381.889a39.925,39.925,0,0,1-4.2.253c-1.295,0-2.849-.029-4.558-.178a43.163,43.163,0,0,1-10.894-2.423,43.667,43.667,0,0,1-4.207-1.773,37.778,37.778,0,0,1-3.695-2.009l.259.132.737.4c.627.357,1.565.84,2.734,1.4a45.09,45.09,0,0,0,4.207,1.727,48.909,48.909,0,0,0,5.358,1.554,49.492,49.492,0,0,0,5.513.863c1.727.155,3.252.207,4.547.2s2.348-.052,3.073-.1l.835-.058A2.822,2.822,0,0,1,281.725,381.889Z" transform="translate(-159.755 -216.122)"/><path class="k" d="M299.1,406.1l-.472.144-1.352.4c-.576.178-1.306.391-2.158.576s-1.807.46-2.878.627-2.262.414-3.545.541c-.639.063-1.3.178-1.986.213l-2.118.138a54.523,54.523,0,0,1-18.635-2.377l-2.014-.662c-.656-.2-1.266-.472-1.87-.7-1.214-.437-2.3-.944-3.309-1.393s-1.87-.921-2.653-1.306-1.427-.765-1.957-1.076l-1.22-.714-.42-.253.432.23,1.232.7c.529.3,1.18.679,1.962,1.053s1.652.869,2.665,1.289,2.089.944,3.3,1.381c.6.219,1.214.489,1.87.691l2.014.65a60.1,60.1,0,0,0,9.208,1.986,58.348,58.348,0,0,0,9.4.386l2.112-.127c.685-.035,1.347-.144,1.986-.207,1.283-.127,2.463-.34,3.539-.529s2.043-.426,2.878-.576a15.394,15.394,0,0,0,2.164-.576l1.358-.38Z" transform="translate(-159.05 -226.522)"/><path class="k" d="M341.174,412.709a1.111,1.111,0,0,1-.213.15c-.144.092-.357.207-.622.345a10.864,10.864,0,0,1-2.216.788,10.538,10.538,0,0,1-2.337.259,4.021,4.021,0,0,1-.708-.035,1.246,1.246,0,0,1-.259-.04h.967a11.777,11.777,0,0,0,2.3-.294,11.454,11.454,0,0,0,2.2-.748C340.846,412.876,341.168,412.692,341.174,412.709Z" transform="translate(-193.99 -231.806)"/><path class="k" d="M353.738,411a1.237,1.237,0,0,1-.167.23,7.4,7.4,0,0,1-.506.575,12.845,12.845,0,0,1-4.121,2.964c-.3.132-.541.23-.714.288a1.539,1.539,0,0,1-.27.086,1,1,0,0,1,.253-.127l.7-.328a15.079,15.079,0,0,0,2.17-1.295,15.612,15.612,0,0,0,1.928-1.646c.224-.23.409-.42.529-.576A1.261,1.261,0,0,1,353.738,411Z" transform="translate(-199.567 -231.081)"/><path class="k" d="M321.5,426.49s-.178.15-.529.426l-.645.506a9.787,9.787,0,0,1-.9.662,31.152,31.152,0,0,1-6.267,3.413,42.864,42.864,0,0,1-10.233,2.676c-1.974.265-4.063.466-6.227.576s-4.42.138-6.722.109a84.3,84.3,0,0,1-12.909-1.22c-3.937-.662-7.441-1.473-10.359-2.21-5.841-1.5-9.4-2.607-9.4-2.607l.65.178,1.87.518c1.629.449,3.983,1.1,6.906,1.824s6.428,1.531,10.359,2.187a85.662,85.662,0,0,0,12.9,1.209c2.3.029,4.541,0,6.71-.1s4.247-.305,6.221-.576a43.2,43.2,0,0,0,10.215-2.647,32.291,32.291,0,0,0,6.273-3.367,9.79,9.79,0,0,0,.9-.656l.656-.495Z" transform="translate(-161.083 -237.657)"/><path class="k" d="M326.95,455.41l-.645.242-1.853.673-1.341.472c-.489.167-1.036.317-1.611.495-1.151.345-2.48.783-3.965,1.151l-2.3.576c-.806.2-1.663.357-2.538.541-1.755.4-3.654.679-5.646,1a96.684,96.684,0,0,1-26.2.23c-2-.288-3.9-.529-5.663-.9-.881-.173-1.727-.311-2.55-.5l-2.337-.576c-1.491-.322-2.814-.737-3.983-1.059-.576-.167-1.151-.317-1.623-.466l-1.347-.455-1.865-.622c-.426-.144-.65-.23-.65-.23l.656.207,1.87.6,1.352.437c.495.15,1.042.294,1.623.46,1.151.311,2.492.725,3.988,1.042l2.331.535c.811.184,1.669.322,2.549.495,1.755.363,3.66.6,5.657.886a97.7,97.7,0,0,0,26.174-.23c1.991-.316,3.89-.576,5.64-.984.881-.19,1.727-.34,2.544-.541l2.3-.576c1.491-.34,2.8-.771,3.965-1.111.576-.173,1.151-.322,1.617-.483l1.347-.466,1.859-.633C326.726,455.479,326.95,455.41,326.95,455.41Z" transform="translate(-162.582 -249.933)"/><path class="e" d="M250.332,251.11s12.759,10.227,19.343,25.012c5.3,11.9,40.861,28.384,43.641,41.253,3.453,15.976-10.843,21.9-18.416,20.753-17.87-2.7-58.3-31.273-58.3-31.273Z" transform="translate(-152.296 -163.21)"/><path class="g" d="M261.626,364.153a4.369,4.369,0,0,1-1.042-.541c-.65-.386-1.577-.961-2.722-1.68-2.3-1.433-5.427-3.453-8.88-5.692s-6.567-4.293-8.811-5.8c-1.093-.737-1.986-1.341-2.653-1.784l-.7-.5a1.8,1.8,0,0,1-.242-.19.99.99,0,0,1,.271.138l.742.455,2.7,1.727,8.863,5.721Z" transform="translate(-152.288 -204.326)"/><path class="e" d="M243.042,121.61c-4.978,3.165-6.964,9.784-6.014,13.72.478,1.98,1.375,3.965.984,5.962-.34,1.727-1.577,3.1-2.509,4.6a13.853,13.853,0,0,0,17.306,20" transform="translate(-150.946 -108.238)"/><path class="e" d="M242.87,139.757c-12.086-26.617,16.69-39.992,32.4-35.555,14.768,4.167,21.064,11.51,23.492,21.392s2.3,20.574-1.56,29.984c-1.9,4.639-5.346,9.352-10.33,9.933" transform="translate(-153.732 -100.493)"/><path class="f" d="M258.96,198.692c-.213-12.719-.207-17.5-.213-17.421s-10.935-1.819-13.2-16.08c-1.151-7.1-.771-18.727-.173-28.235.541-8.558,6.21-19.061,14.739-18.157l26.623,6.733a5.013,5.013,0,0,1,4.489,5.088h0L288.7,187.763" transform="translate(-155.78 -107.022)"/><path class="e" d="M249.743,165.4c.219.247,1.64-.731,3.608-.662s3.378,1.1,3.6.869c.109-.1-.109-.541-.719-1.019a5.053,5.053,0,0,0-2.878-1,4.834,4.834,0,0,0-2.878.829C249.881,164.87,249.639,165.3,249.743,165.4Z" transform="translate(-157.865 -126.06)"/><path class="e" d="M282.048,166.639c.224.242,1.611-.794,3.58-.794s3.413.973,3.626.731c.1-.109-.127-.535-.76-.99a5.047,5.047,0,0,0-2.878-.886,4.857,4.857,0,0,0-2.878.938C282.14,166.1,281.932,166.536,282.048,166.639Z" transform="translate(-171.575 -126.53)"/><path class="e" d="M267.717,174.811a13,13,0,0,0-3.2-.576c-.5-.052-.978-.155-1.065-.495a2.555,2.555,0,0,1,.34-1.491l1.485-3.827c2.066-5.45,3.557-9.933,3.338-10.014s-2.072,4.27-4.138,9.72c-.495,1.341-.973,2.624-1.422,3.85a2.935,2.935,0,0,0-.265,1.974,1.266,1.266,0,0,0,.829.731,3.286,3.286,0,0,0,.852.121A12.947,12.947,0,0,0,267.717,174.811Z" transform="translate(-163.386 -123.859)"/><path class="h" d="M269,223.629a36.314,36.314,0,0,0,19.107-5.1s-4.829,9.922-19.107,8.592Z" transform="translate(-166.05 -149.38)"/><path class="h" d="M272.685,194.161a3.562,3.562,0,0,1,3.183-1.318,3.234,3.234,0,0,1,2.233,1.2,2.037,2.037,0,0,1,.155,2.342,2.38,2.38,0,0,1-2.578.656,7.481,7.481,0,0,1-2.515-1.5,2.25,2.25,0,0,1-.576-.576.662.662,0,0,1,0-.737" transform="translate(-167.525 -138.467)"/><path class="e" d="M276.832,189.27c-.317,0-.322,2.118-2.152,3.637s-4.1,1.283-4.121,1.583c-.029.132.506.414,1.468.437a5.324,5.324,0,0,0,3.453-1.2,4.645,4.645,0,0,0,1.669-3.05C277.218,189.788,276.982,189.258,276.832,189.27Z" transform="translate(-166.711 -136.959)"/><path class="e" d="M282.263,154.475c.2.535,2.158.282,4.472.576s4.178.909,4.483.432c.138-.23-.19-.737-.944-1.255a7.81,7.81,0,0,0-6.82-.748C282.608,153.8,282.182,154.222,282.263,154.475Z" transform="translate(-171.676 -121.571)"/><path class="e" d="M251.4,149.494c.351.449,1.727,0,3.338-.035s3.01.3,3.326-.173c.138-.224-.075-.673-.679-1.093a4.6,4.6,0,0,0-2.711-.737,4.656,4.656,0,0,0-2.659.9C251.444,148.815,251.254,149.275,251.4,149.494Z" transform="translate(-158.56 -119.208)"/><path class="f" d="M320.63,171.339c.207-.1,7.637-3.39,7.723,5.151s-8.506,6.866-8.523,6.624S320.63,171.339,320.63,171.339Z" transform="translate(-187.626 -129.048)"/><path class="h" d="M324.3,181.627c.035-.029.15.1.4.213a1.479,1.479,0,0,0,1.111,0c.9-.34,1.646-1.778,1.669-3.321a4.932,4.932,0,0,0-.437-2.124,1.727,1.727,0,0,0-1.151-1.151.748.748,0,0,0-.869.414c-.115.242-.058.409-.1.426s-.184-.144-.121-.495a.949.949,0,0,1,.334-.541,1.151,1.151,0,0,1,.817-.224,2.1,2.1,0,0,1,1.571,1.306,5.042,5.042,0,0,1,.535,2.377c-.035,1.727-.9,3.344-2.129,3.712a1.594,1.594,0,0,1-1.364-.213C324.322,181.829,324.276,181.645,324.3,181.627Z" transform="translate(-189.523 -130.825)"/><path class="e" d="M262.412,111.37c-4.754,2.457-6.71,12.178-4.742,17.15s6.906,8.345,12.138,9.49,10.693.34,15.85-1.093c.357,3.453,2.434,7.021,5.8,7.936,4.449,1.209,8.938-2.878,9.928-7.372s-.495-9.145-1.962-13.519" transform="translate(-160.918 -103.892)"/><path class="e" d="M320.649,160.661a6.315,6.315,0,0,1-.656.622,24.221,24.221,0,0,1-1.974,1.485,11.982,11.982,0,0,1-3.321,1.606,7.188,7.188,0,0,1-4.529-.063,7.044,7.044,0,0,1-3.453-2.97,9.56,9.56,0,0,1-1.232-3.482,13.1,13.1,0,0,1-.132-2.475,3.081,3.081,0,0,1,.109-.9c.1,0,0,1.3.368,3.315A9.784,9.784,0,0,0,307.1,161.1a6.779,6.779,0,0,0,3.217,2.745,6.935,6.935,0,0,0,4.236.086,12.6,12.6,0,0,0,3.257-1.462C319.578,161.38,320.6,160.586,320.649,160.661Z" transform="translate(-181.476 -122.191)"/><path class="e" d="M321,200.413c1.5-2.268,5.231-4.115,7.948-4.328s5.456-.086,8.143-.506c8.949-1.393,12.891-7.28,11.833-15.884-.42-3.453-1.773-5.755-7.246-12.512a37.375,37.375,0,0,1-7.833-19.723l-3.775,10.935,1.519,12.535-3.631,7.482-6.066,2.521Z" transform="translate(-188.123 -119.211)"/><path class="e" d="M330.521,218.922a24.582,24.582,0,0,0-3.5-5.928,29.19,29.19,0,0,1-3.649-5.841l-8.633,5.318a7.885,7.885,0,0,0-.42-4.029,19.776,19.776,0,0,0-4.178-6.008l-5.882-9.634c-2.377,6.446-4.736,8.46-9.513,11.74s-9.628,5.323-13.565,12.276c-1.088,1.922-3.372,11.953-2.078,13.122,0,0,11.268-6.866,13.271-7.551,4.915-1.686,10.089-2.423,15-4.029a22.779,22.779,0,0,1,12.276,6.48c1.548,1.594,3.044,3.528,5.231,3.942a5.489,5.489,0,0,0,5.594-3.142A8.784,8.784,0,0,0,330.521,218.922Z" transform="translate(-170.175 -138.458)"/><path class="g" d="M321.3,181.54a9.9,9.9,0,0,0-.541-.863,7.481,7.481,0,0,0-2.164-1.922,20.5,20.5,0,0,0-4.23-1.836,28.251,28.251,0,0,1-2.7-1.059,9.307,9.307,0,0,1-2.711-1.819,7.05,7.05,0,0,1-1.784-3.108,10.9,10.9,0,0,1-.259-3.879c.23-2.711,1.416-5.381,2.3-8.224a16.638,16.638,0,0,0,.863-4.483,9.208,9.208,0,0,0-1.036-4.558,6.043,6.043,0,0,0-1.519-1.853,5.663,5.663,0,0,0-2.2-1.047c-.806-.207-1.646-.322-2.492-.506a6.141,6.141,0,0,1-2.434-.99,5.255,5.255,0,0,1-1.6-2.089c-.38-.783-.656-1.588-1-2.354a7.372,7.372,0,0,0-3.252-3.539,12.7,12.7,0,0,0-4.518-1.422,30.818,30.818,0,0,0-4.6-.167c-1.5.029-2.975.075-4.408,0a17.306,17.306,0,0,1-10.589-4.334,16.765,16.765,0,0,1-3.758-4.857,17.5,17.5,0,0,1-1.548-4.374,15.589,15.589,0,0,1-.334-2.912,9.281,9.281,0,0,1,0-1.024v1.019a17.054,17.054,0,0,0,.391,2.878,17.616,17.616,0,0,0,1.583,4.322,16.574,16.574,0,0,0,3.747,4.771,17.231,17.231,0,0,0,6.486,3.516,17.04,17.04,0,0,0,4.029.685c1.416.081,2.878.035,4.385,0a30.738,30.738,0,0,1,4.633.155,12.909,12.909,0,0,1,4.6,1.45,8.241,8.241,0,0,1,1.986,1.537,7.43,7.43,0,0,1,1.393,2.135c.357.777.633,1.583,1,2.348a4.972,4.972,0,0,0,1.565,1.991,5.921,5.921,0,0,0,2.3.944c.829.178,1.675.294,2.509.506a6,6,0,0,1,2.3,1.1,6.255,6.255,0,0,1,1.594,1.945,9.5,9.5,0,0,1,1.053,4.719,16.937,16.937,0,0,1-.886,4.558c-.909,2.878-2.095,5.508-2.3,8.167a10.659,10.659,0,0,0,.247,3.8,6.8,6.8,0,0,0,1.727,3.021,9.208,9.208,0,0,0,2.642,1.8c.921.437,1.824.765,2.676,1.076a20.086,20.086,0,0,1,4.236,1.893,7.211,7.211,0,0,1,2.152,1.986A4.326,4.326,0,0,1,321.3,181.54Z" transform="translate(-164.252 -106.842)"/><path class="g" d="M322.254,171.913a.887.887,0,0,1,.184-.138c.127-.092.328-.2.576-.386a8.056,8.056,0,0,0,1.784-1.876,10.175,10.175,0,0,0,1.571-3.77,12.12,12.12,0,0,0-.127-5.393,19.781,19.781,0,0,0-2.722-6.02,65.839,65.839,0,0,0-4.6-6.06,41.609,41.609,0,0,1-4.829-6.906c-1.41-2.613-1.957-5.652-3.119-8.5a11.694,11.694,0,0,0-2.417-3.8,12.885,12.885,0,0,0-3.585-2.532,31.434,31.434,0,0,0-8.028-2.348,56.627,56.627,0,0,1-7.418-1.824,31.808,31.808,0,0,1-6.089-2.693,21.357,21.357,0,0,1-7.056-6.48,16.9,16.9,0,0,1-1.289-2.3c-.127-.27-.207-.489-.265-.627a1.4,1.4,0,0,1-.081-.219,1.228,1.228,0,0,1,.109.207c.069.132.155.345.294.61a17.838,17.838,0,0,0,1.329,2.245,21.587,21.587,0,0,0,7.067,6.331,31.428,31.428,0,0,0,6.054,2.642,57.771,57.771,0,0,0,7.4,1.79,31.614,31.614,0,0,1,8.109,2.354,13.466,13.466,0,0,1,3.666,2.584,12.161,12.161,0,0,1,2.48,3.9c1.18,2.878,1.727,5.91,3.1,8.477a41.863,41.863,0,0,0,4.783,6.906,64.816,64.816,0,0,1,4.6,6.1,19.832,19.832,0,0,1,2.7,6.077,12.288,12.288,0,0,1,.086,5.479,10.279,10.279,0,0,1-1.64,3.8,8.057,8.057,0,0,1-1.847,1.859A7.373,7.373,0,0,1,322.254,171.913Z" transform="translate(-168.486 -103.327)"/><path class="g" d="M285.446,222.348a2.251,2.251,0,0,1-.052-.449,10.074,10.074,0,0,1,0-1.295,14.168,14.168,0,0,1,1.03-4.65,18,18,0,0,1,3.85-5.9,27.538,27.538,0,0,1,6.964-5.122c2.716-1.456,5.5-2.411,7.815-3.666a17.131,17.131,0,0,0,3.1-2.078,10.435,10.435,0,0,0,2.1-2.463,7.937,7.937,0,0,0,1.283-4.454,9.511,9.511,0,0,0-.288-1.727,2.262,2.262,0,0,1,.161.42,5.648,5.648,0,0,1,.242,1.278,7.908,7.908,0,0,1-1.22,4.57,10.647,10.647,0,0,1-2.112,2.544,17.214,17.214,0,0,1-3.137,2.129c-2.342,1.283-5.116,2.244-7.8,3.689a27.809,27.809,0,0,0-6.906,5.047,18.209,18.209,0,0,0-3.85,5.8,15,15,0,0,0-1.111,4.575,12.456,12.456,0,0,0-.04,1.289A2.689,2.689,0,0,1,285.446,222.348Z" transform="translate(-173 -137.498)"/><path class="g" d="M310.629,120.069c-.035,0-.132-.466-.506-1.26a8.851,8.851,0,0,0-2.25-2.878,12.943,12.943,0,0,0-4.788-2.538,35.394,35.394,0,0,0-6.613-1.093,54.672,54.672,0,0,1-12.04-2.3c-1.5-.472-2.688-.921-3.5-1.255-.409-.161-.719-.3-.932-.391a1.456,1.456,0,0,1-.311-.161,1.319,1.319,0,0,1,.334.1l.95.34c.823.3,2.02.719,3.522,1.151a58.835,58.835,0,0,0,12.005,2.227,33.956,33.956,0,0,1,6.664,1.151,12.961,12.961,0,0,1,4.846,2.642,8.633,8.633,0,0,1,2.221,2.987,6.562,6.562,0,0,1,.328.961A1.727,1.727,0,0,1,310.629,120.069Z" transform="translate(-170.588 -102.542)"/><path class="f" d="M215.677,240.08l-62.9,34.346a3.522,3.522,0,0,1-2.878.224l-43.163-15.343a47.417,47.417,0,0,1-1.111-5.577,26.109,26.109,0,0,1,.806-6.411c-3,.328-3.453,4.086-3.453,4.086s-6.526-.345-7.9,1.375a12.046,12.046,0,0,0-1.767,3.712,3.4,3.4,0,0,0,0,1.962c.305,1.042.61,2.8-.305,3.942-1.375,1.727-3.453,3.781-2.751,6.526s3.488,7.884,8.057,7.85c3.5,0,20.644,15.406,36.067,24.856a31.078,31.078,0,0,0,20.845,4.207c13.237-1.986,46.283-16.114,55.583-20.678C224.218,278.633,215.677,240.08,215.677,240.08Z" transform="translate(-90.115 -158.528)"/><path class="h" d="M112.183,276.569c.035.035-.409.529-1.036,1.387a19.234,19.234,0,0,0-3.332,7.528c-.213,1.042-.276,1.727-.328,1.7a1.553,1.553,0,0,1,0-.466,11.7,11.7,0,0,1,.132-1.266,16.6,16.6,0,0,1,1.191-4.029,16.217,16.217,0,0,1,2.181-3.585,12.5,12.5,0,0,1,.811-.961A2.037,2.037,0,0,1,112.183,276.569Z" transform="translate(-97.482 -174.017)"/><path class="j" d="M248.446,241.284s16.811-10.244,23.734-10.509c11.9-.455,21.092,6.826,22.347,20,.835,8.777-4.765,32.758-4.967,43.215a3.579,3.579,0,0,1,.869,3.741l-10.935-8.6c-2.878-1.652-8.863-6.428-10.117-7.32,0,0-9.91,3.165-19.74,6.2-7.441,2.3-31.118,11.153-35.641,12.759L201.53,269.173Z" transform="translate(-137.409 -154.569)"/><path class="e" d="M289.152,317.74a6.434,6.434,0,0,0-2.549-.725,21.229,21.229,0,0,0-7.154,1.266c-2.952.9-6.457,2.049-10.33,3.361s-8.126,2.78-12.586,4.334l-22.8,8.057-6.906,2.452-1.882.656-.495.167-.167.046a.658.658,0,0,1,.161-.075l.478-.2,1.865-.708,6.872-2.538c5.818-2.124,13.864-5.018,22.779-8.132,4.46-1.554,8.713-3.021,12.6-4.316s7.384-2.44,10.359-3.3c.742-.23,1.456-.414,2.135-.576s1.324-.305,1.928-.409a11.978,11.978,0,0,1,3.16-.19,5.968,5.968,0,0,1,1.934.495A3.454,3.454,0,0,1,289.152,317.74Z" transform="translate(-147.067 -191.131)"/><path class="e" d="M349.85,329.7A34.07,34.07,0,0,0,351,332.957a32.807,32.807,0,0,0,1.727,2.981,9.657,9.657,0,0,1-2.878-6.239Z" transform="translate(-200.37 -196.57)"/><g class="l" transform="translate(132.042 125.895)"><path d="M329.88,319.357a1.364,1.364,0,0,0-.4-1.364,2.584,2.584,0,0,0-1.255-.679c-2.429-.616-5.9.437-8.679,1.232h0c2.843,2.083,5.646,4.368,8.713,6.44l.892.576a1.185,1.185,0,0,0,.34-.915,8.866,8.866,0,0,0-.7-1.951,2.3,2.3,0,0,1,0-2C329.1,320.174,329.691,319.886,329.88,319.357Z" transform="translate(-319.55 -317.129)"/></g><path class="k" d="M234.181,320.057c-.029,0-3.292-7.4-7.28-16.557s-7.205-16.6-7.171-16.609,3.286,7.4,7.28,16.557S234.21,320.045,234.181,320.057Z" transform="translate(-145.135 -178.398)"/><path class="k" d="M258.449,308.581l-.167-.357-.46-1.036-1.686-3.8c-1.433-3.206-3.453-7.614-5.721-12.483s-4.276-9.283-5.692-12.5c-.708-1.606-1.272-2.912-1.652-3.821-.178-.432-.328-.777-.437-1.042s-.144-.368-.144-.368l.167.357c.115.265.27.61.455,1.036l1.692,3.8c1.433,3.211,3.453,7.62,5.721,12.489s4.276,9.277,5.692,12.494c.708,1.611,1.272,2.918,1.652,3.821.178.432.328.777.437,1.047S258.449,308.581,258.449,308.581Z" transform="translate(-154.797 -172.574)"/><path class="k" d="M282.381,298.623s-.069-.132-.184-.391-.288-.662-.495-1.151l-1.836-4.115c-1.565-3.511-3.764-8.333-6.29-13.622s-4.9-10.031-6.641-13.45l-2.083-4.029c-.236-.46-.426-.823-.576-1.1s-.2-.386-.2-.386.081.127.213.374.345.633.576,1.088c.512.944,1.232,2.3,2.118,4.029,1.767,3.413,4.149,8.149,6.676,13.438s4.713,10.123,6.256,13.64c.771,1.755,1.387,3.183,1.8,4.172.2.472.357.852.478,1.151A1.046,1.046,0,0,0,282.381,298.623Z" transform="translate(-163.961 -167.145)"/><path class="k" d="M302.253,290.26c-.029,0-3.9-9.047-8.633-20.229s-8.587-20.264-8.541-20.281,3.9,9.047,8.633,20.229S302.3,290.243,302.253,290.26Z" transform="translate(-172.875 -162.632)"/><path class="k" d="M324.682,283.008s-.04-.161-.1-.478l-.259-1.375c-.109-.576-.247-1.324-.426-2.17s-.363-1.813-.616-2.878c-.466-2.124-1.1-4.633-1.87-7.4s-1.727-5.755-2.826-8.9-2.3-6.054-3.453-8.7-2.239-4.978-3.211-6.906c-.472-.978-.938-1.842-1.335-2.613s-.742-1.422-1.036-1.951l-.668-1.232c-.15-.282-.224-.432-.224-.432s1.375,2.3,3.338,6.187c.984,1.939,2.089,4.282,3.24,6.906s2.3,5.571,3.453,8.7,2.043,6.146,2.826,8.909,1.387,5.283,1.842,7.413C324.291,280.349,324.682,283.008,324.682,283.008Z" transform="translate(-182.885 -157.636)"/><path class="k" d="M344.433,235.56s.046.15.127.443l.345,1.272c.311,1.1.685,2.722,1.1,4.731a71.077,71.077,0,0,1,1.1,7.119c.178,1.347.247,2.768.363,4.236s.132,3,.1,4.57a59.278,59.278,0,0,1-2.129,15.844c-.138.495-.276.961-.4,1.41l-.426,1.232c-.265.771-.495,1.433-.731,1.957s-.38.915-.506,1.22-.19.42-.19.42.052-.15.167-.432.282-.714.489-1.226.449-1.191.708-1.962c.132-.386.27-.8.414-1.232l.4-1.41a60.318,60.318,0,0,0,2.089-15.821c0-1.565-.046-3.09-.1-4.558s-.184-2.878-.357-4.236c-.271-2.7-.7-5.1-1.076-7.113s-.765-3.626-1.065-4.736c-.132-.535-.242-.961-.322-1.278Z" transform="translate(-197.543 -156.609)"/><path class="k" d="M346.414,325.419a9.41,9.41,0,0,1-1.56,1.289,12.419,12.419,0,0,1-4.5,1.859,12.66,12.66,0,0,1-4.875.052,8.835,8.835,0,0,1-1.939-.576l.138.035.386.121a6.221,6.221,0,0,0,.61.167,7.565,7.565,0,0,0,.823.173,13.11,13.11,0,0,0,4.834-.081,12.914,12.914,0,0,0,4.478-1.813,11.5,11.5,0,0,0,1.186-.881l.311-.259C346.374,325.443,346.414,325.414,346.414,325.419Z" transform="translate(-193.446 -194.753)"/><path class="k" d="M350.477,339.52a2.435,2.435,0,0,1-.99.719,2.526,2.526,0,0,1-1.2.276,11.8,11.8,0,0,0,1.151-.386A9.355,9.355,0,0,0,350.477,339.52Z" transform="translate(-199.708 -200.739)"/><path class="k" d="M351.105,288.86a1.323,1.323,0,0,1-.035.247c-.035.161-.075.432-.127.708s-.127.7-.207,1.116-.236.915-.374,1.456a26.618,26.618,0,0,1-3.666,7.879,25.479,25.479,0,0,1-3.125,3.637,19.506,19.506,0,0,1-3.114,2.377,9.433,9.433,0,0,1-2.423,1.053,2.929,2.929,0,0,1-.708.115h-.247l.247-.04a3.453,3.453,0,0,0,.7-.138,9.7,9.7,0,0,0,2.388-1.082,20.079,20.079,0,0,0,3.085-2.383,26.3,26.3,0,0,0,3.1-3.626,27.383,27.383,0,0,0,3.672-7.787c.144-.535.3-1.013.391-1.445s.161-.794.224-1.117l.15-.7C351.082,288.941,351.105,288.86,351.105,288.86Z" transform="translate(-194.949 -179.234)"/><path class="f" d="M143.223,190l44.1,12.466,21.61,15.815,5.18,10.676.576,8.788a2.095,2.095,0,0,1-3.948.99,12.447,12.447,0,0,1-1.151-5.087l-.576-3.879-3.171-4.823s.282,11.453.253,14c0,2.8-1.151,3.482-2.44,3.482-.892,0-3.1.783-3.16-6.123-.086-10.82-1.8-11.568-1.8-11.568s-.334,10.152-.869,14.44c-.351,2.964-4.408,2.383-4.6-.4-.178-2.647-.512-10.1-.512-10.1-.138-2.843-.576-4.886-1.611-5.962,0,0-1.916,12.575-2.452,14.48-.927,3.315-3.781,1.111-3.781-.449s-.449-14.255-.449-14.255l-8.017-6.682-37.2-3.787Z" transform="translate(-110.951 -137.269)"/><path class="h" d="M143.214,225.912a7.371,7.371,0,0,1-.978,0l-2.647-.178a79.489,79.489,0,0,1-8.725-.967,31.116,31.116,0,0,1-4.673-1.249c-.7-.271-1.364-.518-1.957-.817s-1.151-.576-1.634-.846-.909-.576-1.289-.806a10.636,10.636,0,0,1-.932-.668,5.5,5.5,0,0,1-.748-.622,5.842,5.842,0,0,1,.817.529c.259.173.576.4.955.622s.794.518,1.3.76,1.03.576,1.634.806,1.255.524,1.945.783a33.719,33.719,0,0,0,4.639,1.214c3.355.616,6.451.823,8.684,1.047,1.116.109,2.02.2,2.642.276a5.369,5.369,0,0,1,.967.115Z" transform="translate(-102.644 -149.902)"/><path class="h" d="M128.16,226.766a5.5,5.5,0,0,1-1.583.34,14.215,14.215,0,0,1-7.654-1.26,5.754,5.754,0,0,1-1.393-.829c0-.046.576.253,1.479.633a17.173,17.173,0,0,0,3.7,1.059,16.794,16.794,0,0,0,3.844.184C127.55,226.829,128.16,226.732,128.16,226.766Z" transform="translate(-101.752 -152.131)"/><path class="h" d="M211.627,239.062a13.045,13.045,0,0,1-1.571-1.151c-.95-.748-2.245-1.79-3.66-2.975a8.989,8.989,0,0,1-1.8-1.911,4.356,4.356,0,0,1-.742-2.026,3.073,3.073,0,0,1,.2-1.445,1.151,1.151,0,0,1,.276-.455,3.666,3.666,0,0,0-.259,1.87,4.3,4.3,0,0,0,.754,1.9,9.916,9.916,0,0,0,1.761,1.842c1.41,1.151,2.693,2.25,3.6,3.039a12.2,12.2,0,0,1,1.439,1.312Z" transform="translate(-138.39 -153.867)"/><path class="h" d="M232.89,235.56a1.611,1.611,0,0,1,.489.155,11.238,11.238,0,0,1,1.278.576,9.052,9.052,0,0,1,1.761,1.1,5.277,5.277,0,0,1,1.56,2.026,7.263,7.263,0,0,1,.541,2.5,20.041,20.041,0,0,1,0,2.066,14.023,14.023,0,0,1-.155,1.888,10.147,10.147,0,0,1-.058-1.893,10.9,10.9,0,0,0-.576-4.437,5.231,5.231,0,0,0-1.462-1.934,10.274,10.274,0,0,0-1.68-1.151A17.43,17.43,0,0,1,232.89,235.56Z" transform="translate(-150.721 -156.609)"/><path class="h" d="M252.115,250.577a7.09,7.09,0,0,1-.173-2.066v-2.244c0-.846.063-1.778,0-2.734a7.292,7.292,0,0,0-.616-2.607,3.873,3.873,0,0,0-1.4-1.623,3.16,3.16,0,0,0-1.375-.483H248a1.226,1.226,0,0,1,.576-.092,2.912,2.912,0,0,1,1.479.42,3.908,3.908,0,0,1,1.542,1.68,7.119,7.119,0,0,1,.668,2.7,27.418,27.418,0,0,1,0,2.762c0,.823-.058,1.577-.081,2.244s-.029,1.151-.029,1.508a2.923,2.923,0,0,1-.04.529Z" transform="translate(-157.135 -157.951)"/><path class="h" d="M211.864,218.221a.523.523,0,0,1-.115-.069l-.317-.219-1.22-.863-4.529-3.257-15.539-11.292h.046c-2.878-.858-5.951-1.727-9.145-2.653-9.651-2.722-18.416-5.07-24.747-6.906-3.16-.9-5.7-1.663-7.482-2.193l-2.02-.633-.518-.167a.811.811,0,0,1-.178-.069.655.655,0,0,1,.184.04l.529.138,2.037.576,7.482,2.106c6.331,1.761,15.107,4.08,24.747,6.8,3.194.9,6.279,1.8,9.145,2.665h.029L205.706,213.6l4.564,3.407,1.191.9.305.242a.615.615,0,0,1,.1.075Z" transform="translate(-113.88 -137.227)"/></g><g transform="translate(27.756 283.75)"><path class="e" d="M283.385,472.7c0,.081-56.976.15-127.188.15s-127.257-.04-127.257-.15,56.976-.15,127.228-.15S283.385,472.613,283.385,472.7Z" transform="translate(-28.94 -472.55)"/></g></g></svg>